G04 EAGLE Gerber RS-274X export*
G75*
%MOMM*%
%FSLAX34Y34*%
%LPD*%
%INTop Solder Mask*%
%IPPOS*%
%AMOC8*
5,1,8,0,0,1.08239X$1,22.5*%
G01*
%ADD10C,3.203200*%
%ADD11P,1.649562X8X112.500000*%
%ADD12P,1.649562X8X292.500000*%
%ADD13P,1.649562X8X202.500000*%
%ADD14C,2.503200*%
%ADD15C,1.803200*%
%ADD16R,1.803200X1.803200*%
%ADD17R,5.603200X6.403200*%
%ADD18R,1.203200X1.803200*%
%ADD19P,1.649562X8X22.500000*%
%ADD20C,1.917700*%
%ADD21C,1.727200*%
%ADD22C,1.828800*%
%ADD23C,2.108200*%
%ADD24C,1.361200*%
%ADD25C,1.524000*%
%ADD26R,6.403200X5.603200*%
%ADD27R,1.803200X1.203200*%
%ADD28C,1.611200*%
%ADD29C,1.524000*%
%ADD30C,0.959600*%


D10*
X-420000Y40000D03*
X-565000Y410000D03*
X420000Y40000D03*
X565000Y410000D03*
D11*
X-341800Y43400D03*
X-341800Y68800D03*
D12*
X341400Y68800D03*
X341400Y43400D03*
D13*
X324100Y182800D03*
X298700Y182800D03*
D11*
X-341600Y99300D03*
X-341600Y124700D03*
X-229800Y37500D03*
X-229800Y62900D03*
X-267100Y37700D03*
X-267100Y63100D03*
X341400Y101200D03*
X341400Y126600D03*
D14*
X-272700Y119800D03*
X-227700Y119800D03*
X-272700Y179800D03*
X-227700Y179800D03*
X228000Y120400D03*
X273000Y120400D03*
X228000Y180400D03*
X273000Y180400D03*
X227800Y210400D03*
X272800Y210400D03*
X227800Y270400D03*
X272800Y270400D03*
X-272400Y210400D03*
X-227400Y210400D03*
X-272400Y270400D03*
X-227400Y270400D03*
D15*
X322200Y371600D03*
D16*
X271400Y371600D03*
D17*
X40700Y404500D03*
D18*
X17900Y331500D03*
X63500Y331500D03*
D13*
X-161300Y290300D03*
X-186700Y290300D03*
D19*
X162100Y289100D03*
X187500Y289100D03*
D20*
X266900Y21400D03*
X216100Y21400D03*
X216100Y72200D03*
X266900Y72200D03*
D11*
X-26200Y109900D03*
X-26200Y211500D03*
X25500Y110400D03*
X25500Y212000D03*
D13*
X-63700Y112000D03*
X-165300Y112000D03*
X165300Y172000D03*
X63700Y172000D03*
X165300Y112000D03*
X63700Y112000D03*
X-63700Y171200D03*
X-165300Y171200D03*
D19*
X-165300Y221200D03*
X-63700Y221200D03*
D13*
X165300Y221200D03*
X63700Y221200D03*
D21*
X-101600Y37320D02*
X-101600Y22080D01*
X-76200Y22080D02*
X-76200Y37320D01*
X-50800Y37320D02*
X-50800Y22080D01*
X-25400Y22080D02*
X-25400Y37320D01*
X0Y37320D02*
X0Y22080D01*
X25400Y22080D02*
X25400Y37320D01*
X50800Y37320D02*
X50800Y22080D01*
X76200Y22080D02*
X76200Y37320D01*
X101600Y37320D02*
X101600Y22080D01*
D22*
X-355300Y352800D03*
X-329900Y352800D03*
X-304500Y352800D03*
X-279100Y352800D03*
X-253700Y352800D03*
X-228300Y352800D03*
X-202900Y352800D03*
X-177500Y352800D03*
X-152100Y352800D03*
X-126700Y352800D03*
X-101300Y352800D03*
X-75900Y352800D03*
X-50500Y352800D03*
X-25100Y352800D03*
X-25100Y429000D03*
X-50500Y429000D03*
X-75900Y429000D03*
X-101300Y429000D03*
X-126700Y429000D03*
X-152100Y429000D03*
X-177500Y429000D03*
X-202900Y429000D03*
X-228300Y429000D03*
X-253700Y429000D03*
X-279100Y429000D03*
X-304500Y429000D03*
X-329900Y429000D03*
X-355300Y429000D03*
D23*
X140000Y429000D03*
D24*
X160000Y429000D03*
X180000Y429000D03*
X200000Y429000D03*
D23*
X220000Y429000D03*
D12*
X50100Y304600D03*
X50100Y279200D03*
X80800Y304400D03*
X80800Y279000D03*
D20*
X-336500Y257500D03*
X-539700Y257500D03*
X336500Y257500D03*
X539700Y257500D03*
D13*
X-386700Y427500D03*
X-488300Y427500D03*
D25*
X702596Y245800D02*
X715804Y245800D01*
X715804Y271200D02*
X702596Y271200D01*
X702596Y398200D02*
X715804Y398200D01*
X715804Y423600D02*
X702596Y423600D01*
X702596Y296600D02*
X715804Y296600D01*
X715804Y322000D02*
X702596Y322000D01*
X702596Y372800D02*
X715804Y372800D01*
X715804Y347400D02*
X702596Y347400D01*
X639604Y423600D02*
X626396Y423600D01*
X626396Y398200D02*
X639604Y398200D01*
X639604Y372800D02*
X626396Y372800D01*
X626396Y347400D02*
X639604Y347400D01*
X639604Y322000D02*
X626396Y322000D01*
X626396Y296600D02*
X639604Y296600D01*
X639604Y271200D02*
X626396Y271200D01*
X626396Y245800D02*
X639604Y245800D01*
D26*
X177400Y355600D03*
D27*
X104400Y378400D03*
X104400Y332800D03*
D12*
X111600Y304800D03*
X111600Y279400D03*
D13*
X657700Y211600D03*
X632300Y211600D03*
X716900Y211600D03*
X691500Y211600D03*
D19*
X632500Y171500D03*
X657900Y171500D03*
D13*
X716700Y171500D03*
X691300Y171500D03*
D19*
X632500Y131400D03*
X657900Y131400D03*
D12*
X310600Y139100D03*
X310600Y37500D03*
X-310600Y139200D03*
X-310600Y37600D03*
D28*
X-314040Y158400D02*
X-299960Y158400D01*
X300960Y159200D02*
X315040Y159200D01*
D19*
X-228600Y317500D03*
X-203200Y317500D03*
X-50800Y240000D03*
X50800Y240000D03*
D29*
X-114130Y310000D03*
X-65870Y310000D03*
D11*
X17500Y279300D03*
X17500Y304700D03*
X-15000Y279300D03*
X-15000Y304700D03*
D30*
X-217170Y403860D03*
X-7620Y346710D03*
X-216926Y325903D03*
X-245000Y333000D03*
X-346620Y333380D03*
X-412000Y332000D03*
X-106680Y110490D03*
X236220Y251460D03*
X175260Y251460D03*
X137160Y251460D03*
X60960Y251460D03*
X83820Y339090D03*
X110490Y365760D03*
X34290Y186690D03*
X175260Y240030D03*
X95250Y144780D03*
X-15240Y335280D03*
X-83820Y266700D03*
X-152400Y316230D03*
X609600Y236220D03*
X361950Y171450D03*
X-316230Y384810D03*
X-106680Y270510D03*
X-293370Y83820D03*
X350520Y140970D03*
X304800Y87630D03*
X224790Y99060D03*
X-129540Y236220D03*
X-114300Y220980D03*
X-11430Y255270D03*
X22860Y64770D03*
X647700Y198120D03*
X689610Y259080D03*
X384810Y68580D03*
X99060Y156210D03*
X22860Y163830D03*
X3810Y140970D03*
X-72390Y156210D03*
X-106680Y144780D03*
X-198120Y182880D03*
X-331470Y278130D03*
X163830Y396240D03*
X-7620Y422910D03*
X-179070Y411480D03*
M02*
