M48
;GenerationSoftware,Autodesk,EAGLE,9.4.2*%
;CreationDate,2019-07-11T05:46:18Z*%
FMAT,2
ICI,OFF
METRIC,TZ,000.000
T7C0.350
T6C0.650
T5C0.800
T4C0.813
T3C0.900
T2C1.016
T1C3.000
%
G90
M71
T1
X-42000Y41000
X-56500Y4000
X42000Y41000
X56500Y4000
T2
X-7620Y2970
X-10160Y2970
X-23310Y2140
X-28390Y2140
X-28390Y7220
X-23310Y7220
X-5080Y2970
X-22770Y11980
X-27270Y17980
X-22770Y17980
X22800Y12040
X27300Y12040
X22800Y18040
X22000Y43000
X14000Y43000
X10160Y2970
X7620Y2970
X5080Y2970
X27300Y18040
X2540Y2970
X0Y2970
X-2540Y2970
X-27270Y11980
X-22740Y27040
X22780Y21040
X27280Y21040
X22780Y27040
X27280Y27040
X-27240Y21040
X-22740Y21040
X-27240Y27040
T3
X43800Y4920
X-43700Y4840
T4
X-67310Y10160
X-69850Y10160
X-69850Y6350
X-67310Y6350
X-62230Y6350
X-64770Y6350
X-69850Y2540
X-67310Y2540
X41140Y4830
X30980Y4830
X-41140Y4840
X-30980Y4840
X-22860Y31750
X-20320Y31750
X7370Y22120
X-31180Y13340
X-31180Y15880
X31140Y13340
X31140Y15880
X31140Y25010
X31140Y27550
X-31160Y24930
X-31160Y27470
X27020Y4750
X27020Y7290
X23290Y4770
X23290Y7310
X31140Y8120
X31140Y10660
X-15130Y29030
X-17670Y29030
X15210Y28910
X17750Y28910
X-8140Y31710
X-5640Y31710
X-10640Y31710
X-2620Y10990
X-2620Y21150
X2550Y11040
X2550Y21200
X-7370Y11200
X-17530Y11200
X17530Y17200
X7370Y17200
X17530Y11200
X7370Y11200
X-7370Y17120
X-17530Y17120
X-17530Y22120
X-7370Y22120
X17530Y22120
X-70700Y18660
X-35530Y35280
X-32990Y35280
X-30450Y35280
X-27910Y35280
X-25370Y35280
X-22830Y35280
X-20290Y35280
X-17750Y35280
X-15210Y35280
X-12670Y35280
X-10130Y35280
X-7590Y35280
X-5050Y35280
X-2510Y35280
X-2510Y42900
X-5050Y42900
X-7590Y42900
X-10130Y42900
X-12670Y42900
X-15210Y42900
X-17750Y42900
X-20290Y42900
X-22830Y42900
X-25370Y42900
X-27910Y42900
X-30450Y42900
X-32990Y42900
X-35530Y42900
X3510Y30460
X3510Y27920
X8080Y30440
X8080Y27900
X-26670Y31750
X-36830Y31750
X-63080Y13580
X-63080Y16120
X-63080Y28820
X-63080Y31360
X-63080Y18660
X-63080Y21200
X-63080Y26280
X-63080Y23740
X-70700Y31360
X-70700Y28820
X-70700Y26280
X-70700Y23740
X-70700Y21200
X-70700Y16120
X-70700Y13580
X11160Y30480
X11160Y27940
X-62230Y10160
X-64770Y10160
T5
X-53970Y20750
X53970Y20750
X33650Y20750
X27140Y37160
X32220Y37160
X-33650Y20750
T6
X16000Y43000
X18000Y43000
X20000Y43000
T7
X-13000Y18000
X-37500Y35500
X-40500Y34500
X-2500Y8500
X500Y6500
X-1000Y7500
X3500Y22500
X26500Y35500
X13000Y20500
X23500Y30500
X4000Y25500
X-18000Y40500
X-38500Y31500
X500Y40500
X11500Y13500
X13500Y40000
X-13000Y15500
X-16000Y16500
X12000Y32000
X-13500Y33500
X-17000Y5500
X22000Y33500
X-39500Y19500
X-39500Y37000
X-15000Y22500
X20000Y22500
M30